<svg width="24" height="25" viewBox="0 0 24 25" fill="none" xmlns="http://www.w3.org/2000/svg">
<path d="M7 12.5L6.11612 11.6161C5.62796 12.1043 5.62796 12.8957 6.11612 13.3839L7 12.5ZM16.8839 4.38388C17.372 3.89573 17.372 3.10427 16.8839 2.61612C16.3957 2.12796 15.6043 2.12796 15.1161 2.61612L16.8839 4.38388ZM15.1161 22.3839C15.6043 22.872 16.3957 22.872 16.8839 22.3839C17.372 21.8957 17.372 21.1043 16.8839 20.6161L15.1161 22.3839ZM7.88388 13.3839L16.8839 4.38388L15.1161 2.61612L6.11612 11.6161L7.88388 13.3839ZM6.11612 13.3839L15.1161 22.3839L16.8839 20.6161L7.88388 11.6161L6.11612 13.3839Z" fill="#232323"/>
</svg>
