<svg width="28" height="13" viewBox="0 0 28 13" fill="none" xmlns="http://www.w3.org/2000/svg">
<path fill-rule="evenodd" clip-rule="evenodd" d="M14.2647 10.7H4.39163C3.45985 10.7 2.70361 9.9476 2.70361 9.0192V4.6808C2.70361 3.7535 3.45985 3 4.39163 3H14.2647C15.1965 3 15.9516 3.7535 15.9516 4.6808V9.0192C15.9516 9.9476 15.1965 10.7 14.2647 10.7Z" fill="black"/>
<path opacity="0.5" fill-rule="evenodd" clip-rule="evenodd" d="M23.6801 10.0565C23.6801 11.019 22.8962 11.8 21.9302 11.8H3.34991C2.38391 11.8 1.60007 11.019 1.60007 10.0565V3.64355C1.60007 2.68105 2.38391 1.90005 3.34991 1.90005H21.9302C22.8962 1.90005 23.6801 2.68105 23.6801 3.64355V10.0565ZM22.2946 0.800049H2.98561C1.61113 0.800049 0.496094 1.91105 0.496094 3.28055V10.4196C0.496094 11.7891 1.61113 12.9001 2.98561 12.9001H22.2946C23.669 12.9001 24.7841 11.7891 24.7841 10.4196V3.28055C24.7841 1.91105 23.669 0.800049 22.2946 0.800049Z" fill="black"/>
<path opacity="0.5" fill-rule="evenodd" clip-rule="evenodd" d="M25.6123 9.05002V4.65002C26.5264 4.65002 27.2683 5.38922 27.2683 6.30002V7.40002C27.2683 8.31192 26.5264 9.05002 25.6123 9.05002Z" fill="black"/>
</svg>
