<svg width="20" height="12" viewBox="0 0 20 12" fill="none" xmlns="http://www.w3.org/2000/svg">
<path opacity="0.5" fill-rule="evenodd" clip-rule="evenodd" d="M17.0618 0.246948H18.0764C18.7763 0.246948 19.3438 0.813448 19.3438 1.51085V10.6078C19.3438 11.3052 18.7763 11.8717 18.0764 11.8717H17.0618C16.3608 11.8717 15.7944 11.3052 15.7944 10.6078V1.51085C15.7944 0.813448 16.3608 0.246948 17.0618 0.246948Z" fill="black"/>
<path fill-rule="evenodd" clip-rule="evenodd" d="M11.9891 2.77393H13.0037C13.7047 2.77393 14.2711 3.33933 14.2711 4.03783V10.6081C14.2711 11.3055 13.7047 11.872 13.0037 11.872H11.9891C11.288 11.872 10.7217 11.3055 10.7217 10.6081V4.03783C10.7217 3.33933 11.288 2.77393 11.9891 2.77393Z" fill="black"/>
<path fill-rule="evenodd" clip-rule="evenodd" d="M6.91681 5.30115H7.93139C8.63244 5.30115 9.19879 5.86655 9.19879 6.56395V10.6075C9.19879 11.3049 8.63244 11.8714 7.93139 11.8714H6.91681C6.21577 11.8714 5.64941 11.3049 5.64941 10.6075V6.56395C5.64941 5.86655 6.21577 5.30115 6.91681 5.30115Z" fill="black"/>
<path fill-rule="evenodd" clip-rule="evenodd" d="M1.84406 6.81738H2.85864C3.55968 6.81738 4.12604 7.38278 4.12604 8.08018V10.608C4.12604 11.3054 3.55968 11.8719 2.85864 11.8719H1.84406C1.14412 11.8719 0.57666 11.3054 0.57666 10.608V8.08018C0.57666 7.38278 1.14412 6.81738 1.84406 6.81738Z" fill="black"/>
</svg>
