<svg width="17" height="12" viewBox="0 0 17 12" fill="none" xmlns="http://www.w3.org/2000/svg">
<path fill-rule="evenodd" clip-rule="evenodd" d="M8.45811 7.50684C7.28015 7.50684 6.29759 8.30434 6.0249 9.37574L8.57293 11.8716L10.9311 9.56164C10.7323 8.39674 9.70452 7.50684 8.45811 7.50684Z" fill="black"/>
<path fill-rule="evenodd" clip-rule="evenodd" d="M8.45774 3.97546C6.29941 3.97546 4.40605 5.07216 3.31641 6.72436L4.8885 8.26216C5.53655 6.96526 6.88343 6.06546 8.45774 6.06546C10.0917 6.06546 11.4937 7.03016 12.1098 8.40846L13.6863 6.86406C12.6132 5.13486 10.6757 3.97546 8.45774 3.97546Z" fill="black"/>
<path opacity="0.5" fill-rule="evenodd" clip-rule="evenodd" d="M8.45795 0.246338C5.25082 0.246338 2.4058 1.74234 0.59082 4.05454L2.17175 5.60224C3.56942 3.67724 5.86133 2.41664 8.45795 2.41664C11.1131 2.41664 13.4547 3.73114 14.8424 5.73094L16.4244 4.18324C14.6139 1.79844 11.7247 0.246338 8.45795 0.246338Z" fill="black"/>
</svg>
